<svg width="32" height="32" viewBox="0 0 32 32" fill="none" xmlns="http://www.w3.org/2000/svg">
<path d="M19.6028 27.8158L19.6174 27.826C20.8767 28.6278 22.3718 28.976 23.8558 28.813C25.3397 28.65 26.7237 27.9857 27.7789 26.9297L28.6956 26.013C28.8988 25.81 29.0599 25.5689 29.1699 25.3036C29.2798 25.0383 29.3364 24.7539 29.3364 24.4667C29.3364 24.1795 29.2798 23.8951 29.1699 23.6298C29.0599 23.3644 28.8988 23.1234 28.6956 22.9204L24.8291 19.0568C24.6261 18.8536 24.385 18.6925 24.1197 18.5825C23.8544 18.4726 23.57 18.416 23.2828 18.416C22.9956 18.416 22.7112 18.4726 22.4459 18.5825C22.1806 18.6925 21.9395 18.8536 21.7365 19.0568C21.3265 19.4666 20.7706 19.6968 20.1909 19.6968C19.6112 19.6968 19.0553 19.4666 18.6453 19.0568L12.463 12.873C12.0532 12.463 11.8229 11.9071 11.8229 11.3274C11.8229 10.7477 12.0532 10.1918 12.463 9.78182C12.6662 9.5788 12.8273 9.33774 12.9373 9.07242C13.0472 8.8071 13.1038 8.52271 13.1038 8.23551C13.1038 7.94831 13.0472 7.66392 12.9373 7.3986C12.8273 7.13328 12.6662 6.89222 12.463 6.6892L8.59796 2.82561C8.188 2.41578 7.63206 2.18555 7.05238 2.18555C6.4727 2.18555 5.91676 2.41578 5.5068 2.82561L4.58863 3.74232C3.53287 4.79774 2.86877 6.18177 2.70607 7.66571C2.54337 9.14965 2.8918 10.6447 3.69378 11.9038L3.70253 11.9184C7.93802 18.1849 13.3355 23.5814 19.6028 27.8158V27.8158Z" stroke="#E0491F" stroke-width="2.24" stroke-linecap="round" stroke-linejoin="round"/>
</svg>
