<svg width="181" height="44" viewBox="0 0 181 44" fill="none" xmlns="http://www.w3.org/2000/svg">
<path fill-rule="evenodd" clip-rule="evenodd" d="M38 32.5821L19.1026 43.5L0 32.1432V23.4248L19.1981 34.1576L30.1322 27.8493L30.1448 21.9877L32.8375 20.5L32.837 29.6067L19.2178 37.4749L2.90214 28.3536V30.5168L19.1215 40.1594L37.9911 29.2252L38 32.5821Z" fill="#E0491F"/>
<path fill-rule="evenodd" clip-rule="evenodd" d="M18.8734 31.5L12.4578 28.039L12.4548 18.8277L18.8742 22.3695L30.1678 16.0724L18.8657 9.56617L7.86439 15.8994L0 11.372L18.8859 0.5L38 11.5034V26.456L35.094 28.085V13.1618L18.8859 3.83124L5.79241 11.3688L7.86439 12.5615L18.8601 6.23166L32.7049 14.2017L32.7049 17.9432L18.8793 25.5026L15.2565 23.5986V26.2727L18.8734 28.179V31.5Z" fill="#E0491F"/>
<path fill-rule="evenodd" clip-rule="evenodd" d="M51.9329 23.6385L54.2299 24.4213C53.8772 25.8015 53.292 26.8256 52.4716 27.4965C51.654 28.1645 50.6121 28.5 49.3515 28.5C47.7928 28.5 46.5103 27.9262 45.5067 26.7814C44.5032 25.6337 44 24.0652 44 22.0788C44 19.9747 44.5059 18.3415 45.515 17.1761C46.524 16.0137 47.8502 15.431 49.4964 15.431C50.932 15.431 52.0997 15.8872 52.9966 16.8024C53.5326 17.3409 53.9319 18.1178 54.1998 19.1301L51.8509 19.7334C51.7141 19.0772 51.4243 18.5592 50.9813 18.1796C50.541 17.8 50.005 17.6117 49.3761 17.6117C48.5065 17.6117 47.7983 17.9471 47.2569 18.621C46.7154 19.292 46.4447 20.3808 46.4447 21.8875C46.4447 23.4855 46.71 24.6244 47.2459 25.3012C47.7791 25.981 48.4737 26.3194 49.3269 26.3194C49.9586 26.3194 50.5 26.1046 50.9539 25.672C51.4079 25.2423 51.7333 24.5626 51.9329 23.6385ZM58.5012 28.2852V17.7853H55.0174V15.6459H64.3504V17.7853H60.8748V28.2852H58.5012ZM65.8817 28.2852V15.6459H69.6854C71.1266 15.6459 72.0672 15.7106 72.5047 15.8371C73.1775 16.0255 73.7435 16.4375 74.1974 17.0731C74.6514 17.7088 74.8783 18.5298 74.8783 19.5333C74.8783 20.3102 74.7471 20.9635 74.4845 21.4903C74.222 22.02 73.8912 22.4349 73.4865 22.738C73.0845 23.0382 72.6743 23.2383 72.2587 23.3354C71.6926 23.4561 70.8722 23.5178 69.7976 23.5178H68.2526V28.2852H65.8817ZM68.2526 17.7853V21.3696H69.5487C70.4839 21.3696 71.1101 21.3049 71.4246 21.1724C71.7391 21.04 71.9852 20.834 72.1657 20.5515C72.3434 20.269 72.4337 19.9424 72.4337 19.5686C72.4337 19.1095 72.3079 18.7299 72.0563 18.4298C71.8075 18.1325 71.4875 17.9442 71.1047 17.8706C70.8203 17.8118 70.2515 17.7853 69.3983 17.7853H68.2526ZM76.128 22.0435C76.128 20.7546 76.3058 19.6746 76.664 18.8005C76.932 18.159 77.2956 17.5793 77.7578 17.0673C78.2199 16.5581 78.7258 16.1785 79.2754 15.9313C80.0083 15.5958 80.8505 15.431 81.8076 15.431C83.5386 15.431 84.9223 16.0078 85.9614 17.1644C87.0005 18.3179 87.52 19.9247 87.52 21.9817C87.52 24.024 87.0032 25.619 85.9723 26.7726C84.9414 27.9232 83.5632 28.5 81.8404 28.5C80.0931 28.5 78.7039 27.9262 77.673 26.7814C76.6421 25.6337 76.128 24.0535 76.128 22.0435ZM78.5699 21.9582C78.5699 23.3884 78.8789 24.4742 79.4915 25.2129C80.1068 25.9515 80.8861 26.3194 81.8322 26.3194C82.7756 26.3194 83.5523 25.9545 84.1593 25.2188C84.7636 24.486 85.0672 23.3884 85.0672 21.9229C85.0672 20.475 84.7719 19.395 84.1839 18.6799C83.5933 17.9677 82.8085 17.6117 81.8322 17.6117C80.8533 17.6117 80.0657 17.9736 79.4669 18.6946C78.8707 19.4156 78.5699 20.5015 78.5699 21.9582ZM89.4014 15.6459H91.6219V24.0593L96.38 15.6459H98.7426V28.2852H96.5249V20.0336L91.7723 28.2852H89.4014V15.6459ZM95.4912 12.5H96.5878C96.5249 13.2798 96.2706 13.8949 95.8248 14.3393C95.3764 14.7866 94.7994 15.0073 94.0884 15.0073C93.3774 15.0073 92.8005 14.7866 92.3547 14.3393C91.909 13.8949 91.6547 13.2798 91.5891 12.5H92.6883C92.7239 12.9091 92.8579 13.2151 93.0876 13.427C93.3173 13.6359 93.6509 13.7419 94.0884 13.7419C94.5259 13.7419 94.8596 13.6359 95.0893 13.427C95.319 13.2151 95.453 12.9091 95.4912 12.5ZM109.303 20.9223H112.99C112.894 19.9806 112.601 19.1978 112.112 18.574C111.622 17.9501 110.96 17.6381 110.121 17.6381C109.487 17.6381 108.951 17.8265 108.519 18.2061C108.087 18.5857 107.78 19.0889 107.605 19.7157L105.259 19.1389C105.497 18.0178 106.027 17.1202 106.848 16.4434C107.668 15.7695 108.735 15.431 110.05 15.431C111.759 15.431 113.093 16.0402 114.053 17.2615C115.016 18.4827 115.497 20.0748 115.497 22.0347C115.497 23.3678 115.273 24.5155 114.827 25.4748C114.381 26.4341 113.769 27.1787 112.99 27.7084C112.21 28.2352 111.269 28.5 110.17 28.5C107.493 28.5 105.844 27.1463 105.226 24.439L107.605 23.6474C107.728 24.5596 108.032 25.2364 108.516 25.6779C108.997 26.1164 109.577 26.337 110.25 26.337C110.944 26.337 111.537 26.0751 112.032 25.5513C112.525 25.0305 112.845 24.1918 112.99 23.0441H109.303V20.9223ZM117.436 15.6459H119.807V21.0253C120.337 20.9694 120.695 20.8223 120.881 20.5868C121.067 20.3514 121.357 19.6952 121.745 18.621C122.238 17.2526 122.733 16.4022 123.228 16.0696C123.72 15.7342 124.513 15.5694 125.607 15.5694C125.661 15.5694 125.776 15.5664 125.951 15.5605V17.4469L125.615 17.438C125.131 17.438 124.775 17.5028 124.551 17.6322C124.327 17.7618 124.144 17.9589 124.007 18.2238C123.867 18.4886 123.662 19.0301 123.389 19.8541C123.244 20.2896 123.088 20.6545 122.921 20.9488C122.752 21.2401 122.454 21.5168 122.027 21.7757C122.555 21.9376 122.992 22.2613 123.337 22.7498C123.682 23.2383 124.059 23.9299 124.469 24.8186L126.072 28.2852H123.285L121.882 25.0187C121.86 24.9716 121.817 24.8833 121.745 24.7509C121.721 24.7038 121.62 24.5067 121.45 24.1564C121.147 23.5355 120.895 23.1471 120.701 22.9911C120.507 22.8351 120.209 22.7557 119.807 22.7498V28.2852H117.436V15.6459ZM134.71 23.6385L137.007 24.4213C136.654 25.8015 136.069 26.8256 135.249 27.4965C134.431 28.1645 133.389 28.5 132.128 28.5C130.57 28.5 129.287 27.9262 128.284 26.7814C127.28 25.6337 126.777 24.0652 126.777 22.0788C126.777 19.9747 127.283 18.3415 128.292 17.1761C129.301 16.0137 130.627 15.431 132.273 15.431C133.709 15.431 134.877 15.8872 135.774 16.8024C136.31 17.3409 136.709 18.1178 136.977 19.1301L134.628 19.7334C134.491 19.0772 134.201 18.5592 133.758 18.1796C133.318 17.8 132.782 17.6117 132.153 17.6117C131.284 17.6117 130.575 17.9471 130.034 18.621C129.492 19.292 129.222 20.3808 129.222 21.8875C129.222 23.4855 129.487 24.6244 130.023 25.3012C130.556 25.981 131.251 26.3194 132.104 26.3194C132.736 26.3194 133.277 26.1046 133.731 25.672C134.185 25.2423 134.51 24.5626 134.71 23.6385ZM139.074 15.6459H148.415V28.2852H146.044V17.7676H141.445V28.2852H139.074V15.6459ZM150.838 28.2852V15.6459H159.545V17.7853H153.209V20.5868H159.105V22.7145H153.209V26.1546H159.769V28.2852H150.838ZM161.782 28.2852V15.6459H165.585C167.027 15.6459 167.967 15.7106 168.405 15.8371C169.077 16.0255 169.644 16.4375 170.097 17.0731C170.551 17.7088 170.778 18.5298 170.778 19.5333C170.778 20.3102 170.647 20.9635 170.385 21.4903C170.122 22.02 169.791 22.4349 169.386 22.738C168.984 23.0382 168.574 23.2383 168.159 23.3354C167.593 23.4561 166.772 23.5178 165.698 23.5178H164.153V28.2852H161.782ZM164.153 17.7853V21.3696H165.449C166.384 21.3696 167.01 21.3049 167.325 21.1724C167.639 21.04 167.885 20.834 168.066 20.5515C168.243 20.269 168.334 19.9424 168.334 19.5686C168.334 19.1095 168.208 18.7299 167.956 18.4298C167.707 18.1325 167.387 17.9442 167.005 17.8706C166.72 17.8118 166.151 17.7853 165.298 17.7853H164.153ZM175.151 28.2852V17.7853H171.667V15.6459H181V17.7853H177.524V28.2852H175.151Z" fill="#E0491F"/>
</svg>
